<?xml version="1.0" encoding="UTF-8" standalone="no"?>
<svg
   xmlns:dc="http://purl.org/dc/elements/1.1/"
   xmlns:cc="http://creativecommons.org/ns#"
   xmlns:rdf="http://www.w3.org/1999/02/22-rdf-syntax-ns#"
   xmlns:svg="http://www.w3.org/2000/svg"
   xmlns="http://www.w3.org/2000/svg"
   xmlns:xlink="http://www.w3.org/1999/xlink"
   id="svg8"
   version="1.1"
   viewBox="0 0 105.63602 69.688263"
   height="69.688263mm"
   width="105.63602mm">
  <defs
     id="defs2" />
  <metadata
     id="metadata5">
    <rdf:RDF>
      <cc:Work
         rdf:about="">
        <dc:format>image/svg+xml</dc:format>
        <dc:type
           rdf:resource="http://purl.org/dc/dcmitype/StillImage" />
        <dc:title></dc:title>
      </cc:Work>
    </rdf:RDF>
  </metadata>
  <g
     transform="translate(-28.632378,-81.348022)"
     id="layer1">
    <rect
       style="fill:none;stroke:#000000;stroke-width:1;stroke-miterlimit:4;stroke-dasharray:none;stroke-opacity:1"
       y="81.848022"
       x="29.132378"
       height="68.688263"
       width="104.63602"
       id="rect3724" />
    <circle
       r="2.80633"
       cy="87.19342"
       cx="34.344131"
       id="path4531"
       style="fill:none;stroke:#000000;stroke-width:1;stroke-miterlimit:4;stroke-dasharray:none;stroke-opacity:1" />
    <circle
       r="2.80633"
       cy="87.19342"
       cx="128.423"
       id="path4531-0"
       style="fill:none;stroke:#000000;stroke-width:1;stroke-miterlimit:4;stroke-dasharray:none;stroke-opacity:1" />
    <circle
       r="2.80633"
       cy="145.05728"
       cx="128.28937"
       id="path4531-4"
       style="fill:none;stroke:#000000;stroke-width:1;stroke-miterlimit:4;stroke-dasharray:none;stroke-opacity:1" />
    <circle
       r="2.80633"
       cy="145.05727"
       cx="34.210506"
       id="path4531-5"
       style="fill:none;stroke:#000000;stroke-width:1;stroke-miterlimit:4;stroke-dasharray:none;stroke-opacity:1" />
    <rect
       y="118.86486"
       x="51.449383"
       height="10.690781"
       width="25.390606"
       id="rect4560"
       style="fill:none;stroke:#000000;stroke-width:1;stroke-miterlimit:4;stroke-dasharray:none;stroke-opacity:1" />
    <rect
       y="116.45943"
       x="30.201456"
       height="18.575233"
       width="4.1426778"
       id="rect4562"
       style="fill:none;stroke:#000000;stroke-width:1;stroke-miterlimit:4;stroke-dasharray:none;stroke-opacity:1" />
    <circle
       r="0.50113034"
       cy="132.80463"
       cx="32.172569"
       id="path4564"
       style="fill:none;stroke:#000000;stroke-width:1;stroke-miterlimit:4;stroke-dasharray:none;stroke-opacity:1" />
    <circle
       r="0.50113034"
       cy="129.12132"
       cx="32.172569"
       id="path4564-3"
       style="fill:none;stroke:#000000;stroke-width:1;stroke-miterlimit:4;stroke-dasharray:none;stroke-opacity:1" />
    <circle
       r="0.50113034"
       cy="125.68023"
       cx="32.172569"
       id="path4564-3-2"
       style="fill:none;stroke:#000000;stroke-width:1;stroke-miterlimit:4;stroke-dasharray:none;stroke-opacity:1" />
    <circle
       r="0.50113034"
       cy="121.77142"
       cx="32.155869"
       id="path4564-3-2-1"
       style="fill:none;stroke:#000000;stroke-width:1;stroke-miterlimit:4;stroke-dasharray:none;stroke-opacity:1" />
    <circle
       r="0.50113034"
       cy="118.48065"
       cx="32.189274"
       id="path4564-3-2-4"
       style="fill:none;stroke:#000000;stroke-width:1;stroke-miterlimit:4;stroke-dasharray:none;stroke-opacity:1" />
    <rect
       y="115.38244"
       x="52.72768"
       height="2.8820686"
       width="0.094494052"
       id="rect4619"
       style="fill:none;stroke:#000000;stroke-width:1;stroke-miterlimit:4;stroke-dasharray:none;stroke-opacity:1" />
    <use
       height="100%"
       width="100%"
       id="use4621"
       xlink:href="#rect4619"
       y="0"
       x="0" />
    <use
       height="100%"
       width="100%"
       id="use4903"
       xlink:href="#use4621"
       y="0"
       x="0" />
    <use
       height="100%"
       width="100%"
       id="use4905"
       transform="translate(1.7785528)"
       xlink:href="#use4621"
       y="0"
       x="0" />
    <use
       height="100%"
       width="100%"
       id="use4907"
       transform="translate(3.5571055)"
       xlink:href="#use4621"
       y="0"
       x="0" />
    <use
       height="100%"
       width="100%"
       id="use4909"
       transform="translate(5.3356583)"
       xlink:href="#use4621"
       y="0"
       x="0" />
    <use
       height="100%"
       width="100%"
       id="use4911"
       transform="translate(7.114211)"
       xlink:href="#use4621"
       y="0"
       x="0" />
    <use
       height="100%"
       width="100%"
       id="use4913"
       transform="translate(8.8927638)"
       xlink:href="#use4621"
       y="0"
       x="0" />
    <use
       height="100%"
       width="100%"
       id="use4915"
       transform="translate(10.671317)"
       xlink:href="#use4621"
       y="0"
       x="0" />
    <use
       height="100%"
       width="100%"
       id="use4917"
       transform="translate(12.449869)"
       xlink:href="#use4621"
       y="0"
       x="0" />
    <use
       height="100%"
       width="100%"
       id="use4919"
       transform="translate(14.228422)"
       xlink:href="#use4621"
       y="0"
       x="0" />
    <use
       height="100%"
       width="100%"
       id="use4921"
       transform="translate(16.006975)"
       xlink:href="#use4621"
       y="0"
       x="0" />
    <use
       height="100%"
       width="100%"
       id="use4923"
       transform="translate(17.785527)"
       xlink:href="#use4621"
       y="0"
       x="0" />
    <use
       height="100%"
       width="100%"
       id="use4925"
       transform="translate(19.56408)"
       xlink:href="#use4621"
       y="0"
       x="0" />
    <use
       height="100%"
       width="100%"
       id="use4927"
       transform="translate(21.342633)"
       xlink:href="#use4621"
       y="0"
       x="0" />
    <use
       height="100%"
       width="100%"
       id="use4929"
       transform="translate(23.121186)"
       xlink:href="#use4621"
       y="0"
       x="0" />
    <use
       transform="translate(-0.1417426,14.292226)"
       height="100%"
       width="100%"
       id="use4621-0"
       xlink:href="#rect4619"
       y="0"
       x="0" />
    <use
       height="100%"
       width="100%"
       id="use4946"
       xlink:href="#use4621-0"
       y="0"
       x="0" />
    <use
       height="100%"
       width="100%"
       id="use4948"
       transform="translate(1.7785528)"
       xlink:href="#use4621-0"
       y="0"
       x="0" />
    <use
       height="100%"
       width="100%"
       id="use4950"
       transform="translate(3.5571055)"
       xlink:href="#use4621-0"
       y="0"
       x="0" />
    <use
       height="100%"
       width="100%"
       id="use4952"
       transform="translate(5.3356583)"
       xlink:href="#use4621-0"
       y="0"
       x="0" />
    <use
       height="100%"
       width="100%"
       id="use4954"
       transform="translate(7.114211)"
       xlink:href="#use4621-0"
       y="0"
       x="0" />
    <use
       height="100%"
       width="100%"
       id="use4956"
       transform="translate(8.8927638)"
       xlink:href="#use4621-0"
       y="0"
       x="0" />
    <use
       height="100%"
       width="100%"
       id="use4958"
       transform="translate(10.671317)"
       xlink:href="#use4621-0"
       y="0"
       x="0" />
    <use
       height="100%"
       width="100%"
       id="use4960"
       transform="translate(12.449869)"
       xlink:href="#use4621-0"
       y="0"
       x="0" />
    <use
       height="100%"
       width="100%"
       id="use4962"
       transform="translate(14.228422)"
       xlink:href="#use4621-0"
       y="0"
       x="0" />
    <use
       height="100%"
       width="100%"
       id="use4964"
       transform="translate(16.006975)"
       xlink:href="#use4621-0"
       y="0"
       x="0" />
    <use
       height="100%"
       width="100%"
       id="use4966"
       transform="translate(17.785527)"
       xlink:href="#use4621-0"
       y="0"
       x="0" />
    <use
       height="100%"
       width="100%"
       id="use4968"
       transform="translate(19.56408)"
       xlink:href="#use4621-0"
       y="0"
       x="0" />
    <use
       height="100%"
       width="100%"
       id="use4970"
       transform="translate(21.342633)"
       xlink:href="#use4621-0"
       y="0"
       x="0" />
    <use
       height="100%"
       width="100%"
       id="use4972"
       transform="translate(23.121186)"
       xlink:href="#use4621-0"
       y="0"
       x="0" />
    <rect
       y="120.72135"
       x="87.784966"
       height="4.6774554"
       width="1.4646577"
       id="rect4974"
       style="fill:none;stroke:#000000;stroke-width:1;stroke-miterlimit:4;stroke-dasharray:none;stroke-opacity:1" />
    <use
       height="100%"
       width="100%"
       id="use5024"
       xlink:href="#rect4974"
       y="0"
       x="0" />
    <use
       height="100%"
       width="100%"
       id="use5026"
       transform="translate(5.0771947)"
       xlink:href="#rect4974"
       y="0"
       x="0" />
    <use
       height="100%"
       width="100%"
       id="use5028"
       transform="translate(10.154389)"
       xlink:href="#rect4974"
       y="0"
       x="0" />
    <use
       height="100%"
       width="100%"
       id="use5030"
       transform="translate(15.231584)"
       xlink:href="#rect4974"
       y="0"
       x="0" />
    <use
       height="100%"
       width="100%"
       id="use5032"
       transform="translate(20.308779)"
       xlink:href="#rect4974"
       y="0"
       x="0" />
    <use
       height="100%"
       width="100%"
       id="use5034"
       transform="translate(25.385973)"
       xlink:href="#rect4974"
       y="0"
       x="0" />
    <use
       height="100%"
       width="100%"
       id="use5036"
       transform="translate(30.463168)"
       xlink:href="#rect4974"
       y="0"
       x="0" />
    <use
       height="100%"
       width="100%"
       id="use5038"
       transform="translate(35.540363)"
       xlink:href="#rect4974"
       y="0"
       x="0" />
    <ellipse
       ry="2.4722431"
       rx="2.6058779"
       cy="85.923889"
       cx="42.970295"
       id="path5040"
       style="fill:none;stroke:#000000;stroke-width:1;stroke-miterlimit:4;stroke-dasharray:none;stroke-opacity:1" />
    <use
       height="100%"
       width="100%"
       id="use5138"
       xlink:href="#path5040"
       y="0"
       x="0" />
    <use
       height="100%"
       width="100%"
       id="use5140"
       transform="translate(11.025866)"
       xlink:href="#path5040"
       y="0"
       x="0" />
    <use
       height="100%"
       width="100%"
       id="use5142"
       transform="translate(22.051732)"
       xlink:href="#path5040"
       y="0"
       x="0" />
    <use
       height="100%"
       width="100%"
       id="use5144"
       transform="translate(33.077599)"
       xlink:href="#path5040"
       y="0"
       x="0" />
    <use
       height="100%"
       width="100%"
       id="use5146"
       transform="translate(44.103465)"
       xlink:href="#path5040"
       y="0"
       x="0" />
    <use
       height="100%"
       width="100%"
       id="use5148"
       transform="translate(55.129331)"
       xlink:href="#path5040"
       y="0"
       x="0" />
    <use
       height="100%"
       width="100%"
       id="use5150"
       transform="translate(66.155197)"
       xlink:href="#path5040"
       y="0"
       x="0" />
    <use
       height="100%"
       width="100%"
       id="use5152"
       transform="translate(77.181063)"
       xlink:href="#path5040"
       y="0"
       x="0" />
    <g
       id="g5160">
      <rect
         style="fill:none;stroke:#000000;stroke-width:1;stroke-miterlimit:4;stroke-dasharray:none;stroke-opacity:1"
         id="rect5154"
         width="8.8824406"
         height="8.3154764"
         x="40.159973"
         y="139.7619" />
      <circle
         style="fill:none;stroke:#000000;stroke-width:1;stroke-miterlimit:4;stroke-dasharray:none;stroke-opacity:1"
         id="path5156"
         cx="44.601192"
         cy="143.91965"
         r="2.5040922" />
    </g>
    <use
       height="100%"
       width="100%"
       id="use5274"
       xlink:href="#g5160"
       y="0"
       x="0" />
    <use
       height="100%"
       width="100%"
       id="use5276"
       transform="translate(10.435857)"
       xlink:href="#g5160"
       y="0"
       x="0" />
    <use
       height="100%"
       width="100%"
       id="use5278"
       transform="translate(20.871714)"
       xlink:href="#g5160"
       y="0"
       x="0" />
    <use
       height="100%"
       width="100%"
       id="use5280"
       transform="translate(31.307571)"
       xlink:href="#g5160"
       y="0"
       x="0" />
    <use
       height="100%"
       width="100%"
       id="use5282"
       transform="translate(41.743428)"
       xlink:href="#g5160"
       y="0"
       x="0" />
    <use
       height="100%"
       width="100%"
       id="use5284"
       transform="translate(52.179285)"
       xlink:href="#g5160"
       y="0"
       x="0" />
    <use
       height="100%"
       width="100%"
       id="use5286"
       transform="translate(62.615142)"
       xlink:href="#g5160"
       y="0"
       x="0" />
    <use
       height="100%"
       width="100%"
       id="use5288"
       transform="translate(73.050999)"
       xlink:href="#g5160"
       y="0"
       x="0" />
    <rect
       y="119.44568"
       x="38.931545"
       height="4.2522321"
       width="1.7953868"
       id="rect5296"
       style="fill:none;stroke:#000000;stroke-width:1;stroke-miterlimit:4;stroke-dasharray:none;stroke-opacity:1" />
    <use
       height="100%"
       width="100%"
       id="use5316"
       xlink:href="#rect5296"
       y="0"
       x="0" />
    <use
       height="100%"
       width="100%"
       id="use5318"
       transform="translate(4.0589015)"
       xlink:href="#rect5296"
       y="0"
       x="0" />
    <use
       height="100%"
       width="100%"
       id="use5320"
       transform="translate(8.117803)"
       xlink:href="#rect5296"
       y="0"
       x="0" />
    <g
       transform="translate(-1.4174107)"
       id="g5377">
      <rect
         style="fill:none;stroke:#000000;stroke-width:1;stroke-miterlimit:4;stroke-dasharray:none;stroke-opacity:1"
         id="rect5322"
         width="43.986977"
         height="20.552456"
         x="38.364582"
         y="93.365326" />
      <g
         id="g5335">
        <path
           id="path5324"
           d="m 41.35996,96.965462 -0.7684,12.377918 5.863226,-0.0167 0.684876,-12.361209 z"
           style="fill:none;stroke:#000000;stroke-width:1;stroke-linecap:butt;stroke-linejoin:miter;stroke-miterlimit:4;stroke-dasharray:none;stroke-opacity:1" />
        <path
           id="path5326"
           d="m 40.959055,103.04584 5.796408,-0.0167"
           style="fill:none;stroke:#000000;stroke-width:1;stroke-linecap:butt;stroke-linejoin:miter;stroke-miterlimit:4;stroke-dasharray:none;stroke-opacity:1" />
        <circle
           r="0.35914341"
           cy="109.28493"
           cx="48.083458"
           id="path5330"
           style="fill:#000000;fill-opacity:1;stroke:#000000;stroke-width:1;stroke-miterlimit:4;stroke-dasharray:none;stroke-opacity:1" />
      </g>
      <use
         height="100%"
         width="100%"
         x="0"
         y="0"
         xlink:href="#g5335"
         transform="translate(10.881843)"
         id="use5363" />
      <use
         height="100%"
         width="100%"
         x="0"
         y="0"
         xlink:href="#g5335"
         transform="translate(21.763686)"
         id="use5365" />
      <use
         height="100%"
         width="100%"
         x="0"
         y="0"
         xlink:href="#g5335"
         transform="translate(32.645528)"
         id="use5367" />
    </g>
    <use
       height="100%"
       width="100%"
       id="use5399"
       xlink:href="#g5377"
       y="0"
       x="0" />
    <use
       height="100%"
       width="100%"
       id="use5401"
       transform="translate(45.256897)"
       xlink:href="#g5377"
       y="0"
       x="0" />
    <g
       id="text5405"
       style="font-style:normal;font-weight:normal;font-size:10.58333302px;line-height:1.25;font-family:sans-serif;letter-spacing:0px;word-spacing:0px;fill:#000000;fill-opacity:1;stroke:none;stroke-width:0.26458332"
       aria-label="LED&amp;KEY">
      <path
         id="path914"
         style="font-style:normal;font-variant:normal;font-weight:bold;font-stretch:normal;font-size:5.99722242px;font-family:sans-serif;-inkscape-font-specification:'sans-serif, Bold';font-variant-ligatures:normal;font-variant-caps:normal;font-variant-numeric:normal;font-feature-settings:normal;text-align:start;writing-mode:tb-rl;text-anchor:start;stroke-width:0.26458332"
         d="m 132.17648,100.53044 v 1.12741 h -3.51986 v 1.97955 h -0.85214 v -3.10696 z" />
      <path
         id="path916"
         style="font-style:normal;font-variant:normal;font-weight:bold;font-stretch:normal;font-size:5.99722242px;font-family:sans-serif;-inkscape-font-specification:'sans-serif, Bold';font-variant-ligatures:normal;font-variant-caps:normal;font-variant-numeric:normal;font-feature-settings:normal;text-align:start;writing-mode:tb-rl;text-anchor:start;stroke-width:0.26458332"
         d="m 132.17648,104.35191 v 3.04254 h -0.85215 v -1.91513 h -0.81407 v 1.80092 h -0.85215 v -1.80092 h -1.00149 v 1.97955 h -0.85214 v -3.10696 z" />
      <path
         id="path918"
         style="font-style:normal;font-variant:normal;font-weight:bold;font-stretch:normal;font-size:5.99722242px;font-family:sans-serif;-inkscape-font-specification:'sans-serif, Bold';font-variant-ligatures:normal;font-variant-caps:normal;font-variant-numeric:normal;font-feature-settings:normal;text-align:start;writing-mode:tb-rl;text-anchor:start;stroke-width:0.26458332"
         d="m 131.32433,109.57605 h -2.66771 v 0.40411 q 0,0.69109 0.34262,1.0542 0.34261,0.36604 0.99563,0.36604 0.65009,0 0.98978,-0.36311 0.33968,-0.36311 0.33968,-1.05713 z m 0.85215,-1.1274 v 1.1889 q 0,0.99563 -0.14349,1.48173 -0.14056,0.48904 -0.48025,0.83751 -0.29576,0.30747 -0.6823,0.45682 -0.38654,0.14934 -0.87557,0.14934 -0.49489,0 -0.88436,-0.14934 -0.38654,-0.14935 -0.6823,-0.45682 -0.33968,-0.3514 -0.48317,-0.84336 -0.14056,-0.49196 -0.14056,-1.47588 v -1.1889 z" />
      <path
         id="path920"
         style="font-style:normal;font-variant:normal;font-weight:bold;font-stretch:normal;font-size:5.99722242px;font-family:sans-serif;-inkscape-font-specification:'sans-serif, Bold';font-variant-ligatures:normal;font-variant-caps:normal;font-variant-numeric:normal;font-feature-settings:normal;text-align:start;writing-mode:tb-rl;text-anchor:start;stroke-width:0.26458332"
         d="m 130.70645,115.21602 -1.31774,1.19769 q 0.20498,0.1552 0.45974,0.23426 0.25477,0.082 0.57688,0.0966 v 0.91071 q -0.53295,-0.0439 -0.94877,-0.20791 -0.41583,-0.16106 -0.72916,-0.45097 l -0.94292,0.85801 v -1.24162 l 0.31919,-0.28697 q -0.20499,-0.30748 -0.30455,-0.64716 -0.0996,-0.33969 -0.0996,-0.72037 0,-0.77015 0.40411,-1.24747 0.40703,-0.47439 1.04834,-0.47439 0.42754,0 0.75551,0.20791 0.3309,0.21084 0.6413,0.68523 0.1552,-0.12299 0.31041,-0.18156 0.1552,-0.0586 0.32504,-0.0586 0.47732,0 0.7643,0.37189 0.28697,0.3719 0.28697,0.98978 0,0.26648 -0.0439,0.55345 -0.041,0.28991 -0.12592,0.60324 h -0.81408 q 0.14056,-0.27526 0.20791,-0.52124 0.0674,-0.24598 0.0674,-0.48025 0,-0.22548 -0.0879,-0.3514 -0.0849,-0.12299 -0.24306,-0.12299 -0.0996,0 -0.22841,0.0703 -0.12591,0.0732 -0.28112,0.21377 z m -0.72622,-0.58274 q -0.13763,-0.19034 -0.31333,-0.28698 -0.17277,-0.0966 -0.38069,-0.0966 -0.33675,0 -0.57395,0.24891 -0.23719,0.24891 -0.23719,0.59738 0,0.1962 0.0586,0.36604 0.0615,0.16984 0.18156,0.31626 z" />
      <path
         id="path922"
         style="font-style:normal;font-variant:normal;font-weight:bold;font-stretch:normal;font-size:5.99722242px;font-family:sans-serif;-inkscape-font-specification:'sans-serif, Bold';font-variant-ligatures:normal;font-variant-caps:normal;font-variant-numeric:normal;font-feature-settings:normal;text-align:start;writing-mode:tb-rl;text-anchor:start;stroke-width:0.26458332"
         d="m 132.17648,118.65681 v 1.12741 h -1.59594 l 1.59594,1.62522 v 1.30896 l -2.07033,-2.10547 -2.30167,2.32217 v -1.41145 l 1.72186,-1.73943 h -1.72186 v -1.12741 z" />
      <path
         id="path924"
         style="font-style:normal;font-variant:normal;font-weight:bold;font-stretch:normal;font-size:5.99722242px;font-family:sans-serif;-inkscape-font-specification:'sans-serif, Bold';font-variant-ligatures:normal;font-variant-caps:normal;font-variant-numeric:normal;font-feature-settings:normal;text-align:start;writing-mode:tb-rl;text-anchor:start;stroke-width:0.26458332"
         d="m 132.17648,123.30407 v 3.04254 h -0.85215 v -1.91513 h -0.81407 v 1.80092 h -0.85215 v -1.80092 h -1.00149 v 1.97955 h -0.85214 v -3.10696 z" />
      <path
         id="path926"
         style="font-style:normal;font-variant:normal;font-weight:bold;font-stretch:normal;font-size:5.99722242px;font-family:sans-serif;-inkscape-font-specification:'sans-serif, Bold';font-variant-ligatures:normal;font-variant-caps:normal;font-variant-numeric:normal;font-feature-settings:normal;text-align:start;writing-mode:tb-rl;text-anchor:start;stroke-width:0.26458332"
         d="m 132.17648,126.79171 v 1.23283 l -1.55788,0.99563 1.55788,0.99563 v 1.23576 l -2.53008,-1.66622 h -1.84192 v -1.12741 h 1.84192 z" />
    </g>
  </g>
</svg>
